<svg width="1086" height="680" viewBox="0 0 1086 680" fill="none" xmlns="http://www.w3.org/2000/svg">
<path fill-rule="evenodd" clip-rule="evenodd" d="M686.605 144.645L542.605 0.644531L398.605 144.645V215.355L433.96 180L542.605 71.3552L651.249 180L686.605 215.355V144.645Z" fill="#144FA3"/>
<path fill-rule="evenodd" clip-rule="evenodd" d="M644.534 281.284L679.889 245.929L542.96 109L363.605 288.355L398.96 323.711L542.96 179.711L644.534 281.284Z" fill="#3C9EEE"/>
<path fill-rule="evenodd" clip-rule="evenodd" d="M686.96 253L722.316 288.355L659.87 350.801L621.96 345.634V388.711L542.96 467.711L406.031 330.782L441.387 295.426L542.96 397L571.96 368V288.357L642.05 297.91L651.605 288.355L686.96 253Z" fill="#74D2F6"/>
<path d="M0 677.344V555.779H26.397L90.1318 642.611L84.4009 641.742C83.822 637.922 83.3589 634.275 83.0116 630.802C82.6642 627.328 82.3169 623.913 81.9696 620.555C81.738 617.198 81.5065 613.783 81.2749 610.309C81.1591 606.836 81.0433 603.073 80.9276 599.021C80.9276 594.969 80.9276 590.569 80.9276 585.823V555.779H109.582V677.344H82.8379L16.3244 587.733L25.1813 588.949C25.7602 594.506 26.2233 599.253 26.5706 603.189C27.0337 607.01 27.3811 610.425 27.6126 613.435C27.96 616.445 28.1915 619.166 28.3073 621.597C28.4231 624.029 28.4809 626.46 28.4809 628.891C28.5967 631.207 28.6546 633.812 28.6546 636.706V677.344H0Z" fill="#3C9EEE"/>
<path d="M146.163 677.344V555.779H230.911V580.96H174.818V652.162H232.648V677.344H146.163ZM160.056 627.502V603.536H223.096V627.502H160.056Z" fill="#3C9EEE"/>
<path d="M319.572 679.08C310.31 679.08 301.858 677.517 294.217 674.391C286.576 671.265 279.919 666.866 274.246 661.193C268.573 655.52 264.173 648.863 261.047 641.221C257.921 633.58 256.358 625.186 256.358 616.04C256.358 606.894 257.921 598.5 261.047 590.859C264.173 583.218 268.573 576.56 274.246 570.887C279.919 565.214 286.576 560.815 294.217 557.689C301.858 554.563 310.252 553 319.399 553C328.545 553 336.939 554.563 344.58 557.689C352.221 560.815 358.878 565.214 364.551 570.887C370.224 576.56 374.566 583.218 377.576 590.859C380.702 598.5 382.265 606.894 382.265 616.04C382.265 625.071 380.702 633.464 377.576 641.221C374.566 648.863 370.224 655.52 364.551 661.193C358.878 666.866 352.221 671.265 344.58 674.391C336.939 677.517 328.603 679.08 319.572 679.08ZM319.399 651.294C324.145 651.294 328.487 650.426 332.423 648.689C336.476 646.952 339.949 644.521 342.843 641.395C345.853 638.153 348.169 634.391 349.79 630.107C351.411 625.823 352.221 621.134 352.221 616.04C352.221 610.946 351.411 606.257 349.79 601.973C348.169 597.69 345.853 593.985 342.843 590.859C339.949 587.617 336.476 585.128 332.423 583.391C328.487 581.655 324.145 580.786 319.399 580.786C314.652 580.786 310.252 581.655 306.2 583.391C302.264 585.128 298.79 587.617 295.78 590.859C292.77 593.985 290.454 597.69 288.834 601.973C287.328 606.257 286.576 610.946 286.576 616.04C286.576 621.134 287.328 625.881 288.834 630.281C290.454 634.564 292.77 638.269 295.78 641.395C298.79 644.521 302.264 646.952 306.2 648.689C310.252 650.426 314.652 651.294 319.399 651.294Z" fill="#3C9EEE"/>
<path d="M548.26 677.344V555.779H577.783V677.344H548.26ZM472.889 677.344V555.779H502.412V677.344H472.889ZM484.351 629.933L484.525 603.536H563.889V629.933H484.351Z" fill="#3C9EEE"/>
<path d="M598.847 677.344L646.952 555.779H671.96L719.718 677.344H689.848L666.924 615.693C665.998 613.262 665.071 610.657 664.145 607.878C663.219 605.099 662.293 602.263 661.367 599.368C660.44 596.358 659.514 593.464 658.588 590.685C657.778 587.791 657.083 585.128 656.504 582.697L661.714 582.523C661.019 585.417 660.209 588.254 659.283 591.032C658.472 593.811 657.604 596.59 656.678 599.368C655.867 602.031 654.941 604.752 653.899 607.531C652.857 610.193 651.873 612.972 650.947 615.866L628.023 677.344H598.847Z" fill="#3C9EEE"/>
<path d="M761.943 677.344L713.317 555.779H744.055L767.5 617.777C768.889 621.366 770.047 624.492 770.973 627.155C772.015 629.818 772.884 632.307 773.578 634.622C774.389 636.938 775.083 639.311 775.662 641.742C776.357 644.058 777.109 646.721 777.92 649.731H772.536C773.462 645.795 774.389 642.321 775.315 639.311C776.241 636.185 777.283 633.001 778.441 629.76C779.599 626.402 781.046 622.408 782.782 617.777L805.359 555.779H835.576L786.603 677.344H761.943Z" fill="#3C9EEE"/>
<path d="M857.617 677.344V555.779H942.365V580.96H886.271V652.162H944.102V677.344H857.617ZM871.51 627.502V603.536H934.55V627.502H871.51Z" fill="#3C9EEE"/>
<path d="M975.627 677.344V555.779H1002.02L1065.76 642.611L1060.03 641.742C1059.45 637.922 1058.99 634.275 1058.64 630.802C1058.29 627.328 1057.94 623.913 1057.6 620.555C1057.37 617.198 1057.13 613.783 1056.9 610.309C1056.79 606.836 1056.67 603.073 1056.55 599.021C1056.55 594.969 1056.55 590.569 1056.55 585.823V555.779H1085.21V677.344H1058.46L991.952 587.733L1000.81 588.949C1001.39 594.506 1001.85 599.253 1002.2 603.189C1002.66 607.01 1003.01 610.425 1003.24 613.435C1003.59 616.445 1003.82 619.166 1003.93 621.597C1004.05 624.029 1004.11 626.46 1004.11 628.891C1004.22 631.207 1004.28 633.812 1004.28 636.706V677.344H975.627Z" fill="#3C9EEE"/>
</svg>
